<svg width="24" height="25" viewBox="0 0 24 25" fill="none" xmlns="http://www.w3.org/2000/svg">
<path d="M4.29243 18.793L10.5854 12.5L4.29243 6.20702C4.11027 6.01842 4.00948 5.76582 4.01176 5.50362C4.01403 5.24142 4.1192 4.99061 4.30461 4.8052C4.49002 4.61979 4.74083 4.51462 5.00303 4.51235C5.26523 4.51007 5.51783 4.61086 5.70643 4.79302L11.9994 11.086L18.2924 4.79302C18.3847 4.69751 18.495 4.62133 18.617 4.56892C18.739 4.51651 18.8703 4.48892 19.003 4.48777C19.1358 4.48662 19.2675 4.51192 19.3904 4.5622C19.5133 4.61248 19.6249 4.68673 19.7188 4.78062C19.8127 4.87452 19.887 4.98617 19.9373 5.10907C19.9875 5.23196 20.0128 5.36364 20.0117 5.49642C20.0105 5.6292 19.9829 5.76042 19.9305 5.88242C19.8781 6.00443 19.8019 6.11477 19.7064 6.20702L13.4134 12.5L19.7064 18.793C19.8019 18.8853 19.8781 18.9956 19.9305 19.1176C19.9829 19.2396 20.0105 19.3708 20.0117 19.5036C20.0128 19.6364 19.9875 19.7681 19.9373 19.891C19.887 20.0139 19.8127 20.1255 19.7188 20.2194C19.6249 20.3133 19.5133 20.3876 19.3904 20.4378C19.2675 20.4881 19.1358 20.5134 19.003 20.5123C18.8703 20.5111 18.739 20.4835 18.617 20.4311C18.495 20.3787 18.3847 20.3025 18.2924 20.207L11.9994 13.914L5.70643 20.207C5.51783 20.3892 5.26523 20.49 5.00303 20.4877C4.74083 20.4854 4.49002 20.3802 4.30461 20.1948C4.1192 20.0094 4.01403 19.7586 4.01176 19.4964C4.00948 19.2342 4.11027 18.9816 4.29243 18.793Z" fill="#EFEAE5"/>
</svg>
