<svg width="24" height="24" viewBox="0 0 24 24" fill="none" xmlns="http://www.w3.org/2000/svg">
<path d="M2.29323 21.707C2.48076 21.8944 2.73507 21.9997 3.00023 21.9997C3.26539 21.9997 3.5197 21.8944 3.70723 21.707L6.90723 18.507C8.43044 19.4743 10.1958 19.9918 12.0002 20C16.3252 20 20.2272 17 21.9382 12.346C22.0212 12.1228 22.0212 11.8772 21.9382 11.654C21.2649 9.77579 20.1551 8.08438 18.7002 6.71896L21.7122 3.70696C21.8077 3.61471 21.8839 3.50437 21.9363 3.38236C21.9887 3.26036 22.0163 3.12914 22.0175 2.99636C22.0186 2.86358 21.9933 2.7319 21.9431 2.60901C21.8928 2.48611 21.8185 2.37446 21.7246 2.28056C21.6307 2.18667 21.5191 2.11242 21.3962 2.06214C21.2733 2.01186 21.1416 1.98655 21.0088 1.98771C20.876 1.98886 20.7448 2.01645 20.6228 2.06886C20.5008 2.12127 20.3905 2.19745 20.2982 2.29296L17.0982 5.49296C15.5736 4.52473 13.8063 4.00717 12.0002 3.99996C7.67523 3.99996 3.77323 6.99996 2.06223 11.654C1.97926 11.8772 1.97926 12.1228 2.06223 12.346C2.73705 14.2246 3.84857 15.9161 5.30523 17.281L2.29323 20.293C2.10576 20.4805 2.00044 20.7348 2.00044 21C2.00044 21.2651 2.10576 21.5194 2.29323 21.707V21.707ZM17.2662 8.14796C18.4338 9.21406 19.3443 10.5311 19.9292 12C18.4512 15.657 15.3732 18 12.0002 18C10.7284 17.9942 9.47874 17.666 8.36823 17.046L9.98123 15.433C10.5908 15.8006 11.2884 15.9965 12.0002 16C13.0611 16 14.0785 15.5785 14.8287 14.8284C15.5788 14.0782 16.0002 13.0608 16.0002 12C15.9967 11.2881 15.8008 10.5905 15.4332 9.98096L17.2662 8.14796ZM10.0752 12.511C10.0278 12.3447 10.0026 12.1729 10.0002 12C10.0002 11.4695 10.2109 10.9608 10.586 10.5857C10.9611 10.2107 11.4698 9.99996 12.0002 9.99996C12.1731 10.0023 12.345 10.0275 12.5112 10.075L10.0752 12.511ZM13.9252 11.489C13.9727 11.6552 13.9979 11.8271 14.0002 12C14.0002 12.5304 13.7895 13.0391 13.4144 13.4142C13.0394 13.7892 12.5307 14 12.0002 14C11.8273 13.9976 11.6555 13.9724 11.4892 13.925L13.9252 11.489ZM4.07123 12C5.54923 8.34296 8.62723 5.99996 12.0002 5.99996C13.2721 6.0057 14.5217 6.33393 15.6322 6.95396L14.0192 8.56696C13.4097 8.19936 12.712 8.00344 12.0002 7.99996C10.9394 7.99996 9.92195 8.42139 9.1718 9.17153C8.42166 9.92168 8.00023 10.9391 8.00023 12C8.00371 12.7118 8.19963 13.4094 8.56723 14.019L6.73423 15.852C5.5667 14.7859 4.65619 13.4688 4.07123 12V12Z" fill="#6E7082"/>
</svg>
