<svg width="24" height="24" viewBox="0 0 24 24" fill="none" xmlns="http://www.w3.org/2000/svg">
<path d="M2.06223 12.346C3.77323 17 7.67523 20 12.0002 20C16.3252 20 20.2272 17 21.9382 12.346C22.0212 12.1228 22.0212 11.8772 21.9382 11.654C20.2272 7 16.3252 4 12.0002 4C7.67523 4 3.77323 7 2.06223 11.654C1.97926 11.8772 1.97926 12.1228 2.06223 12.346V12.346ZM12.0002 6C15.3732 6 18.4512 8.343 19.9292 12C18.4512 15.657 15.3732 18 12.0002 18C8.62723 18 5.54923 15.657 4.07123 12C5.54923 8.343 8.62723 6 12.0002 6ZM12.0002 16C12.7914 16 13.5647 15.7654 14.2225 15.3259C14.8803 14.8864 15.393 14.2616 15.6957 13.5307C15.9985 12.7998 16.0777 11.9956 15.9234 11.2196C15.769 10.4437 15.3881 9.73098 14.8287 9.17157C14.2692 8.61216 13.5565 8.2312 12.7806 8.07686C12.0047 7.92252 11.2004 8.00173 10.4695 8.30448C9.73859 8.60723 9.11388 9.11992 8.67435 9.77772C8.23483 10.4355 8.00023 11.2089 8.00023 12C8.00023 13.0609 8.42166 14.0783 9.1718 14.8284C9.92195 15.5786 10.9394 16 12.0002 16ZM12.0002 10C12.3958 10 12.7825 10.1173 13.1114 10.3371C13.4403 10.5568 13.6966 10.8692 13.848 11.2346C13.9994 11.6001 14.039 12.0022 13.9618 12.3902C13.8846 12.7781 13.6941 13.1345 13.4144 13.4142C13.1347 13.6939 12.7784 13.8844 12.3904 13.9616C12.0024 14.0387 11.6003 13.9991 11.2349 13.8478C10.8694 13.6964 10.5571 13.44 10.3373 13.1111C10.1175 12.7822 10.0002 12.3956 10.0002 12C10.0002 11.4696 10.2109 10.9609 10.586 10.5858C10.9611 10.2107 11.4698 10 12.0002 10V10Z" fill="#6E7082"/>
</svg>
