<svg width="85" height="31" viewBox="0 0 85 31" fill="none" xmlns="http://www.w3.org/2000/svg">
<path fill-rule="evenodd" clip-rule="evenodd" d="M11.0356 9.13078C10.9838 9.41994 10.9568 9.71768 10.9568 10.0217C10.9568 12.7951 13.2051 15.0435 15.9785 15.0435C16.2824 15.0435 16.5801 15.0165 16.8691 14.9647C16.8838 15.1412 16.8912 15.3197 16.8912 15.5C16.8912 15.6802 16.8838 15.8588 16.8691 16.0353C16.5801 15.9836 16.2824 15.9566 15.9785 15.9566C13.2051 15.9566 10.9568 18.2049 10.9568 20.9783C10.9568 21.2823 10.9838 21.58 11.0356 21.8691C10.859 21.8838 10.6803 21.8912 10.5 21.8912C10.3197 21.8912 10.1411 21.8838 9.96463 21.8691C10.0164 21.58 10.0434 21.2823 10.0434 20.9783C10.0434 18.2049 7.79511 15.9566 5.0217 15.9566C4.71767 15.9566 4.41995 15.9836 4.13081 16.0353C4.11617 15.8588 4.1087 15.6803 4.1087 15.5C4.1087 15.3197 4.11617 15.1412 4.1308 14.9647C4.41994 15.0164 4.71767 15.0435 5.0217 15.0435C7.79511 15.0435 10.0434 12.7951 10.0434 10.0217C10.0434 9.71767 10.0164 9.41992 9.96461 9.13076C10.1411 9.11612 10.3197 9.10865 10.5 9.10865C10.6803 9.10865 10.859 9.11613 11.0356 9.13078ZM4.1308 14.9647C1.78237 14.5442 0 12.4911 0 10.0217C0 7.24832 2.24829 5 5.0217 5C7.49105 5 9.54412 6.78236 9.96461 9.13076C6.86181 9.38808 4.38808 11.8619 4.1308 14.9647ZM4.13081 16.0353C1.78238 16.4558 0 18.5089 0 20.9783C0 23.7517 2.24829 26 5.0217 26C7.4911 26 9.54419 24.2176 9.96463 21.8691C6.86186 21.6118 4.38814 19.1381 4.13081 16.0353ZM11.0356 21.8691C11.456 24.2176 13.5091 26 15.9785 26C18.7519 26 21.0002 23.7517 21.0002 20.9783C21.0002 18.5088 19.2177 16.4556 16.8691 16.0353C16.6118 19.138 14.1382 21.6117 11.0356 21.8691ZM11.0356 9.13078C11.4561 6.78237 13.5091 5 15.9785 5C18.7519 5 21.0002 7.24832 21.0002 10.0217C21.0002 12.4912 19.2177 14.5444 16.8691 14.9647C16.6119 11.862 14.1383 9.38823 11.0356 9.13078Z" fill="#EFEAE5"/>
<path d="M33.776 25H31.064V8.248H38.288C39.792 8.248 40.976 8.704 41.84 9.616C42.704 10.512 43.136 11.736 43.136 13.288C43.136 14.488 42.856 15.488 42.296 16.288C41.752 17.072 40.944 17.624 39.872 17.944L43.496 25H40.472L37.112 18.232H33.776V25ZM38.096 15.952C38.784 15.952 39.32 15.776 39.704 15.424C40.088 15.056 40.28 14.536 40.28 13.864V12.712C40.28 12.04 40.088 11.528 39.704 11.176C39.32 10.808 38.784 10.624 38.096 10.624H33.776V15.952H38.096ZM51.143 25.288C50.247 25.288 49.447 25.136 48.743 24.832C48.039 24.528 47.439 24.096 46.943 23.536C46.447 22.96 46.063 22.272 45.791 21.472C45.535 20.656 45.407 19.752 45.407 18.76C45.407 17.768 45.535 16.872 45.791 16.072C46.063 15.256 46.447 14.568 46.943 14.008C47.439 13.432 48.039 12.992 48.743 12.688C49.447 12.384 50.247 12.232 51.143 12.232C52.055 12.232 52.855 12.392 53.543 12.712C54.247 13.032 54.831 13.48 55.295 14.056C55.759 14.616 56.103 15.272 56.327 16.024C56.567 16.776 56.687 17.584 56.687 18.448V19.432H48.119V19.84C48.119 20.8 48.399 21.592 48.959 22.216C49.535 22.824 50.351 23.128 51.407 23.128C52.175 23.128 52.823 22.96 53.351 22.624C53.879 22.288 54.327 21.832 54.695 21.256L56.231 22.768C55.767 23.536 55.095 24.152 54.215 24.616C53.335 25.064 52.311 25.288 51.143 25.288ZM51.143 14.272C50.695 14.272 50.279 14.352 49.895 14.512C49.527 14.672 49.207 14.896 48.935 15.184C48.679 15.472 48.479 15.816 48.335 16.216C48.191 16.616 48.119 17.056 48.119 17.536V17.704H53.927V17.464C53.927 16.504 53.679 15.736 53.183 15.16C52.687 14.568 52.007 14.272 51.143 14.272ZM62.2469 25C61.3509 25 60.6789 24.776 60.2309 24.328C59.7989 23.864 59.5829 23.224 59.5829 22.408V7.24H62.1989V22.864H63.9269V25H62.2469ZM67.7467 10.288C67.2027 10.288 66.8027 10.16 66.5467 9.904C66.3067 9.648 66.1867 9.32 66.1867 8.92V8.512C66.1867 8.112 66.3067 7.784 66.5467 7.528C66.8027 7.272 67.2027 7.144 67.7467 7.144C68.2907 7.144 68.6827 7.272 68.9227 7.528C69.1627 7.784 69.2827 8.112 69.2827 8.512V8.92C69.2827 9.32 69.1627 9.648 68.9227 9.904C68.6827 10.16 68.2907 10.288 67.7467 10.288ZM66.4267 12.52H69.0427V25H66.4267V12.52ZM81.9223 25C81.2343 25 80.7063 24.808 80.3383 24.424C79.9703 24.024 79.7463 23.52 79.6663 22.912H79.5463C79.3063 23.696 78.8663 24.288 78.2263 24.688C77.5863 25.088 76.8103 25.288 75.8983 25.288C74.6023 25.288 73.6023 24.952 72.8983 24.28C72.2103 23.608 71.8663 22.704 71.8663 21.568C71.8663 20.32 72.3143 19.384 73.2103 18.76C74.1223 18.136 75.4503 17.824 77.1943 17.824H79.4503V16.768C79.4503 16 79.2423 15.408 78.8263 14.992C78.4103 14.576 77.7623 14.368 76.8823 14.368C76.1463 14.368 75.5463 14.528 75.0823 14.848C74.6183 15.168 74.2263 15.576 73.9062 16.072L72.3463 14.656C72.7623 13.952 73.3463 13.376 74.0983 12.928C74.8503 12.464 75.8343 12.232 77.0503 12.232C78.6663 12.232 79.9063 12.608 80.7703 13.36C81.6343 14.112 82.0663 15.192 82.0663 16.6V22.864H83.3863V25H81.9223ZM76.6423 23.296C77.4583 23.296 78.1303 23.12 78.6583 22.768C79.1863 22.4 79.4503 21.912 79.4503 21.304V19.504H77.2422C75.4343 19.504 74.5303 20.064 74.5303 21.184V21.616C74.5303 22.176 74.7143 22.6 75.0823 22.888C75.4663 23.16 75.9863 23.296 76.6423 23.296Z" fill="#EFEAE5"/>
</svg>
